<svg xmlns="http://www.w3.org/2000/svg" width="51" height="24" fill="none" viewBox="0 0 51 24">
  <path fill="#8C8A9A" d="M7.373 8.684h2.716V5.786h1.05v9.17h-1.05v-5.39H7.373v-.882Zm-6.272 3.654c1.792-.686 3.08-2.408 3.08-4.298V6.5h1.036v1.568c0 1.736 1.26 3.346 2.996 4.004l-.56.812A5.192 5.192 0 0 1 4.727 9.93a5.43 5.43 0 0 1-3.08 3.248l-.546-.84Zm2.184 5.404V13.92h1.05v2.954h7.098v.868H3.285ZM13.87 6.668h4.704v.868h-3.696v1.582h3.57v.826h-3.57v1.722c1.792 0 2.898-.07 4.2-.322l.112.854c-1.414.28-2.576.336-4.55.336h-.77V6.668Zm1.568 8.05v-.868h8.19v4.172h-1.036v-3.304h-7.154Zm4.48-1.596V6.01h.994v2.982h1.722v-3.22h.994v7.42h-.994V9.86h-1.722v3.262h-.994Z"/>
  <path stroke="#8C8A9A" stroke-linecap="square" stroke-width="1.6" d="m45 9-5.979 6M33 9l5.978 6"/>
</svg>
